<?xml version="1.0" standalone="no"?>
<!DOCTYPE svg PUBLIC "-//W3C//DTD SVG 1.1//EN" "http://www.w3.org/Graphics/SVG/1.1/DTD/svg11.dtd">
<svg xmlns="http://www.w3.org/2000/svg">
<defs >
<font id="MerriweatherSans" horiz-adv-x="1161" ><font-face
    font-family="Merriweather Sans ExtraBold"
    units-per-em="2000"
    panose-1="0 0 0 0 0 0 0 0 0 0"
    ascent="1968"
    descent="-546"
    alphabetic="0" />
<glyph unicode=" " horiz-adv-x="360" />
<glyph unicode="!" horiz-adv-x="670" d="M196 476L330 1736H686L448 476H196ZM246 -18Q174 -18 133 23T92 130Q92 216 149 278T296 340Q376 340 415 300T454 194Q454 100 398 41T246 -18Z" />
<glyph unicode="&quot;" horiz-adv-x="1106" d="M210 944L294 1648H614L434 944H210ZM766 944L850 1648H1170L990 944H766Z" />
<glyph unicode="#" horiz-adv-x="1372" d="M222 0L276 314H106L126 536H306L356 830H180L198 1046H386L432 1326H670L626 1046H852L902 1326H1140L1094 1046H1282L1262 830H1064L1014 536H1196L1176 314H982L930 0H696L742 314H516L458 0H222ZM546 536H774L822
830H596L546 536Z" />
<glyph unicode="$" horiz-adv-x="1176" d="M338 -268L384 -10Q320 -3 255 11T140 43T70 76L182 352Q217 325 263 303T360 268T458 254Q528 254 574 269T644 315T668 392Q668 463 621 519T482 644Q350 743 284 851T218 1076Q218 1187 268 1272T405 1414T600 1494L644
1750H878L836 1506Q925 1500 991 1478T1094 1426L988 1152Q965 1175 921 1194T823 1226T722 1238Q665 1238 625 1222T562 1179T540 1116Q540 1068 563 1029T630 951T736 862Q820 797 883 735T981 602T1018 442Q1019 315 973 222T838 72T620 -4L572 -268H338Z" />
<glyph unicode="%" horiz-adv-x="1958" d="M524 0L1234 1494H1456L766 0H524ZM456 658Q302 658 211 751T120 1010Q120 1140 179 1250T340 1428T572 1496Q681 1496 756 1457T869 1342T908 1160Q908 1025 852 911T695 728T456 658ZM478 860Q539 860 582 904T647
1011T670 1134Q670 1208 638 1252T550 1296Q487 1296 443 1254T374 1150T350 1028Q350 952 384 906T478 860ZM1446 58Q1362 58 1285 100T1159 221T1110 412Q1110 540 1168 650T1329 828T1562 896Q1671 896 1746 857T1859 742T1898 560Q1898 425 1842 311T1684 128T1446
58ZM1468 260Q1529 260 1572 304T1637 411T1660 534Q1660 611 1628 653T1540 696Q1476 696 1432 655T1364 551T1340 428Q1340 352 1374 306T1468 260Z" />
<glyph unicode="&amp;" horiz-adv-x="1528" d="M602 -16Q411 -16 278 24T74 146T4 352Q4 447 34 520T136 653T334 766Q300 846 278 930T256 1082Q256 1213 318 1309T490 1457T740 1510Q858 1510 946 1478T1084 1379T1134 1208Q1134 1097 1082 1012T940 857T736
718Q805 609 877 520T1022 360Q1046 392 1058 429T1070 508Q1070 523 1069 541T1066 578Q1035 575 1010 568T968 548L978 766Q996 789 1032 799T1124 810H1560L1540 580H1388Q1388 514 1376 454Q1346 313 1246 210Q1297 192 1357 187T1472 184L1432 8Q1413 1 1371
-4T1278 -13T1184 -16Q1130 -16 1066 -4T942 34Q863 9 779 -3T602 -16ZM626 212Q650 212 671 213T712 216Q656 272 615 322T536 426T456 550Q402 534 373 480T344 382Q344 321 377 284T474 229T626 212ZM624 922Q685 959 728 997T793 1078T816 1170Q816 1232 788
1263T700 1294Q664 1294 637 1272T594 1211T578 1120Q578 1077 590 1028T624 922Z" />
<glyph unicode="&apos;" horiz-adv-x="550" d="M210 944L294 1648H614L434 944H210Z" />
<glyph unicode="(" horiz-adv-x="834" d="M476 -342Q364 -253 286 -112T167 196T126 528Q126 677 152 825T228 1111T351 1371T518 1589T728 1750L902 1632Q778 1505 690 1377T546 1114T464 828T438 504Q438 378 455 272T504 75T576 -94T664 -240L476 -342Z" />
<glyph unicode=")" horiz-adv-x="830" d="M144 -354L-30 -238Q91 -114 180 10T327 268T413 552T442 878Q442 1004 424 1113T373 1315T298 1488T208 1634L396 1738Q512 1641 589 1502T705 1200T744 868Q744 688 698 505T569 156T378 -143T144 -354Z" />
<glyph unicode="*" horiz-adv-x="1278" d="M540 566L614 888L642 1024L524 938L254 742L150 946L468 1070L594 1124L480 1174L188 1300L314 1502L566 1304L662 1226L664 1358L656 1680H888L812 1358L780 1226L898 1304L1184 1504L1278 1300L958 1174L834 1122L948
1070L1240 946L1094 744L860 942L760 1024L766 888L778 566H540Z" />
<glyph unicode="+" horiz-adv-x="1320" d="M486 244L518 514L542 646L420 638H178L212 896H456L570 884L578 1020L608 1292H874L848 1020L824 886L918 896H1188L1154 638H886L792 646L786 514L752 244H486Z" />
<glyph unicode="," horiz-adv-x="514" d="M60 -506L-32 -382L-28 -362Q40 -327 81 -257T122 -116Q122 -54 98 -8T38 52L44 104L198 288Q265 262 308 210T373 94T394 -30Q394 -134 354 -236Q312 -333 237 -404T60 -506Z" />
<glyph unicode="-" horiz-adv-x="1224" d="M204 592L240 836H1060L1024 592H204Z" />
<glyph unicode="." horiz-adv-x="514" d="M182 -28Q112 -28 71 13T30 120Q30 206 86 268T232 330Q315 330 352 290T390 184Q390 90 334 31T182 -28Z" />
<glyph unicode="/" horiz-adv-x="834" d="M-138 -354L702 1560H970L126 -354H-138Z" />
<glyph unicode="0" horiz-adv-x="1358" d="M608 -16Q491 -16 397 27T237 148T136 332T100 564Q100 755 150 926T292 1228T515 1435T806 1510Q962 1510 1074 1433T1246 1224T1306 924Q1306 734 1257 564T1117 264T897 59T608 -16ZM634 244Q720 244 780 307T878
471T933 690T950 914Q950 1044 928 1117T865 1220T768 1250Q701 1250 650 1208T562 1095T502 937T467 757T456 582Q456 465 477 391T539 280T634 244Z" />
<glyph unicode="1" horiz-adv-x="890" d="M254 0L412 1100Q355 1076 285 1063T150 1044L116 1264Q184 1280 270 1316T441 1402T590 1508H602L812 1484L602 0H254Z" />
<glyph unicode="2" horiz-adv-x="1232" d="M66 0L14 162Q117 236 224 320T429 495T604 677T727 858T772 1030Q772 1096 751 1142T688 1212T580 1236Q524 1236 476 1220T384 1177T302 1120L146 1284Q194 1349 272 1399T449 1477T652 1506Q773 1506 863 1470T1013
1372T1102 1231T1132 1066Q1132 946 1087 843T966 652T801 488T620 347T452 226L1078 248L1076 0H66Z" />
<glyph unicode="3" horiz-adv-x="1172" d="M324 -14Q234 -14 171 -10T54 -2L86 240Q128 236 176 233T256 230Q378 230 463 246T600 293T676 368T700 470Q700 505 679 548T615 624T504 658L310 598L326 830Q393 840 462 863T591 921T686 1003T722 1106Q722 1183
674 1221T548 1260Q471 1260 413 1240T317 1192T260 1144L120 1314Q187 1381 272 1423T456 1486T660 1506Q773 1506 867 1468T1017 1359T1074 1192Q1074 1092 1035 1013T919 876T732 778Q842 767 917 722T1031 612T1070 476Q1070 364 1014 274T856 119T619 20T324
-14Z" />
<glyph unicode="4" horiz-adv-x="1264" d="M622 0L664 300H86L8 460Q91 595 184 769T368 1130T538 1494H876L932 1436L442 626L366 536L700 554L770 966L1068 1000L1004 562L1220 574L1182 300H966L928 0H622Z" />
<glyph unicode="5" horiz-adv-x="1180" d="M198 -16Q174 -16 138 -13T72 0L108 228Q131 224 149 223T184 222Q255 222 343 237T513 289T647 387T700 540Q700 630 654 690T488 750Q453 750 411 743T331 723T268 698L144 830L294 1494H898L918 1510H1092L1012 1226H556L480
938Q507 950 566 961T692 972Q785 972 870 934T1011 809T1066 578Q1066 436 1002 326T820 139T544 24T198 -16Z" />
<glyph unicode="6" horiz-adv-x="1276" d="M582 -16Q422 -16 316 52T156 238T102 500Q102 742 201 948T486 1302T932 1512L1008 1306Q858 1256 757 1179T601 1028T534 918Q568 940 613 954T704 975T788 982Q909 982 994 923T1125 768T1170 562Q1170 456 1135 353T1028
167T845 34T582 -16ZM608 216Q673 216 717 246T789 323T829 426T842 530Q842 605 818 651T748 720T642 742Q595 742 558 730T495 699T456 664Q441 624 432 585T422 514Q422 417 448 351T516 250T608 216Z" />
<glyph unicode="7" horiz-adv-x="1122" d="M154 0L798 1228H128L168 1494H1134L1182 1430L548 0H154Z" />
<glyph unicode="8" horiz-adv-x="1264" d="M578 -20Q433 -20 320 25T143 153T78 352Q77 467 123 545T245 673T414 752Q367 796 326 851T260 970T234 1104Q234 1238 301 1329T481 1466T728 1512Q858 1512 959 1471T1119 1355T1178 1182Q1178 1070 1132 995T1011
872T852 794Q917 743 983 684T1095 553T1140 394Q1140 264 1062 172T856 30T578 -20ZM606 192Q662 192 704 213T770 274T794 366Q794 419 761 466T675 558T562 650Q520 622 484 587T426 503T404 388Q404 303 466 248T606 192ZM722 892Q785 934 830 996T876 1152Q876
1229 830 1268T722 1308Q644 1308 599 1254T554 1114Q554 1054 603 1001T722 892Z" />
<glyph unicode="9" horiz-adv-x="1268" d="M380 -16L302 190Q453 240 556 312T715 452T784 556Q733 528 664 514T538 500Q417 500 332 563T201 727T156 938Q156 1045 189 1144T293 1322T473 1447T734 1494Q894 1494 1000 1426T1160 1240T1214 978Q1214 737 1114
535T827 190T380 -16ZM656 740Q703 740 744 751T816 779T860 810Q875 855 883 892T892 972Q892 1069 867 1135T799 1236T706 1270Q642 1270 599 1242T531 1170T494 1073T482 970Q482 858 534 799T656 740Z" />
<glyph unicode=":" horiz-adv-x="514" d="M418 -28Q348 -28 307 13T266 120Q266 206 322 268T468 330Q551 330 588 290T626 184Q626 90 570 31T418 -28ZM252 762Q182 762 141 803T100 910Q100 996 156 1058T302 1120Q385 1120 422 1080T460 974Q460 880 404 821T252 762Z" />
<glyph unicode=";" horiz-adv-x="514" d="M60 -506L-32 -382L-28 -362Q40 -327 81 -257T122 -116Q122 -54 98 -8T38 52L44 104L198 288Q265 262 308 210T373 94T394 -30Q394 -134 354 -236Q312 -333 237 -404T60 -506ZM256 762Q186 762 145 803T104 910Q104 996
160 1058T306 1120Q389 1120 426 1080T464 974Q464 880 408 821T256 762Z" />
<glyph unicode="&lt;" horiz-adv-x="1362" d="M1082 176L194 684L210 810L1214 1318L1178 1014L572 736L1106 452L1082 176Z" />
<glyph unicode="=" horiz-adv-x="1060" d="M158 790L194 1032H1014L978 790H158ZM104 308L140 550H960L924 308H104Z" />
<glyph unicode="&gt;" horiz-adv-x="1362" d="M250 178L286 482L892 762L358 1044L382 1322L1270 814L1254 686L250 178Z" />
<glyph unicode="?" horiz-adv-x="930" d="M214 510Q192 548 180 587T168 690Q168 738 190 780T245 860T314 928Q385 990 452 1036T573 1125T660 1212T692 1316Q692 1363 658 1400T558 1460T394 1482Q339 1482 288 1477T192 1460L246 1684Q272 1707 335 1721T456
1736Q617 1736 740 1697T934 1570T1004 1340Q1004 1223 933 1126T692 938Q649 916 599 881T503 804T428 715T398 622Q398 591 404 559T414 514L214 510ZM294 -18Q224 -18 183 23T142 130Q142 216 198 278T344 340Q427 340 464 300T502 194Q502 100 446 41T294 -18Z"
/>
<glyph unicode="@" horiz-adv-x="1980" d="M916 -430Q670 -430 487 -333T202 -57T100 366Q100 617 180 826T406 1188T753 1424T1198 1508Q1410 1508 1573 1435T1828 1223T1920 888Q1920 726 1876 570T1751 287T1554 85T1296 10Q1241 10 1211 52T1180 162Q1180
197 1183 258T1192 362Q1145 254 1088 174T966 50T832 6Q765 6 710 40T615 134T554 267T532 420Q532 552 571 672T683 885T858 1032T1088 1086Q1121 1086 1162 1080T1240 1062T1302 1034L1494 1062Q1489 1041 1477 970T1451 802T1423 601T1401 408T1392 268Q1392
244 1395 231T1402 218Q1452 218 1494 259T1570 370T1625 521T1660 687T1672 840Q1672 1015 1608 1119T1425 1270T1148 1316Q968 1316 820 1242T563 1041T397 750T338 408Q338 209 409 70T614 -143T938 -216Q1019 -216 1079 -208T1187 -184T1276 -150L1334 -316Q1264
-368 1153 -399T916 -430ZM904 290Q933 290 967 330T1034 435T1097 571T1145 710T1170 820Q1151 843 1117 852T1048 862Q1000 862 959 821T886 716T838 587T820 472Q820 413 827 373T853 311T904 290Z" />
<glyph unicode="A" horiz-adv-x="1314" d="M-120 0L602 1494H1042L1264 0H916L886 280H376L260 0H-120ZM470 514H858L784 1174L778 1290L740 1174L470 514Z" />
<glyph unicode="B" horiz-adv-x="1320" d="M520 -16Q509 -16 466 -14T369 -8T274 -3T222 0H70L284 1494H444Q456 1494 504 1496T612 1501T716 1506T768 1508Q933 1508 1043 1471T1209 1358T1264 1170Q1264 1020 1189 918T968 786Q1056 767 1117 725T1210 620T1242
478Q1242 307 1158 198T913 37T520 -16ZM568 228Q636 228 707 258T827 341T876 462Q876 576 812 615T614 654Q584 654 558 653T508 650L450 234Q465 232 483 231T523 229T568 228ZM542 886Q565 885 586 884T630 882Q768 882 838 942T908 1130Q908 1210 858 1240T706
1270Q684 1270 665 1270T629 1268T598 1266L542 886Z" />
<glyph unicode="C" horiz-adv-x="1164" d="M610 -16Q418 -16 300 72Q182 161 132 301T82 610Q82 853 184 1060Q285 1267 465 1388T874 1510Q927 1510 976 1505T1082 1484T1218 1442L1118 1114Q1075 1155 1005 1186T838 1218Q699 1218 610 1132Q519 1045 477 908T434
610Q434 491 461 415T548 301T702 264Q761 264 819 277T925 311T1002 352L1048 110Q1025 91 975 69T861 28T731 -4T610 -16Z" />
<glyph unicode="D" horiz-adv-x="1390" d="M556 -16Q499 -16 426 -12T291 -4T210 0H70L284 1494H436Q443 1494 480 1495T570 1499T675 1504T766 1508T814 1510Q1110 1510 1246 1352T1382 910Q1382 710 1327 541T1164 247T904 53T556 -16ZM604 238Q744 238 840
328Q935 418 980 571T1026 916Q1026 1047 996 1122Q966 1196 906 1225T744 1254Q710 1254 667 1251T594 1242L454 258Q484 248 521 243T604 238Z" />
<glyph unicode="E" horiz-adv-x="1176" d="M70 0L284 1494H1176L1140 1226L592 1228L544 898L954 904L918 634L508 642L454 264L1072 274L1036 0H70Z" />
<glyph unicode="F" horiz-adv-x="1054" d="M70 0L284 1494H1122L1080 1226L592 1230L540 866L958 872L922 588L500 594L416 0H70Z" />
<glyph unicode="G" horiz-adv-x="1394" d="M662 -16Q454 -16 320 72Q188 159 130 297T72 592Q72 858 178 1070Q283 1279 463 1394T864 1510Q933 1510 983 1507T1079 1494T1180 1467T1316 1422L1244 1108Q1213 1132 1145 1160T998 1208T856 1228Q702 1228 604 1136Q507
1043 465 903T422 610Q422 490 454 409T551 286T712 244Q759 244 816 251T908 276L952 556H708L742 830H1304L1200 78Q1178 75 1151 69T1092 54Q980 24 881 4T662 -16Z" />
<glyph unicode="H" horiz-adv-x="1464" d="M58 0L272 1494H618L526 846H996L1088 1494H1438L1224 0H876L962 608H492L404 0H58Z" />
<glyph unicode="I" horiz-adv-x="690" d="M96 0L310 1494H656L442 0H96Z" />
<glyph unicode="J" horiz-adv-x="680" d="M-132 -348L-176 -234Q-132 -223 -87 -189T-2 -107T65 -9T100 84Q123 193 146 342T193 658T237 985T275 1279T304 1494H652L472 254Q462 184 454 139T440 74Q401 -79 318 -171T119 -306T-132 -348Z" />
<glyph unicode="K" horiz-adv-x="1294" d="M58 0L272 1494H608L512 840L1038 1494H1434L842 836Q856 810 876 771T926 673T997 531T1096 334Q1122 281 1147 234T1195 145T1239 67T1280 0H874Q870 7 859 29T831 88T791 178T738 298L614 584L454 416L394 0H58Z" />
<glyph unicode="L" horiz-adv-x="1036" d="M70 0L284 1494H630L454 270L940 282L898 0H70Z" />
<glyph unicode="M" horiz-adv-x="1942" d="M718 -18L602 1112L600 1340L552 1112L310 0H-30L378 1494H882L948 466L954 246L1000 466L1348 1494H1852L1830 0H1484L1572 1112L1598 1340L1526 1112L1098 -2L718 -18Z" />
<glyph unicode="N" horiz-adv-x="1464" d="M70 0L284 1494H584L932 720L1008 466L1022 720L1116 1494H1450L1236 0H946L606 814L510 1082L512 814L400 0H70Z" />
<glyph unicode="O" horiz-adv-x="1360" d="M610 -16Q438 -16 318 59T134 265T70 564Q70 755 120 926T266 1228T499 1435T808 1510Q936 1510 1035 1466T1201 1343T1303 1156T1338 924Q1338 734 1289 564T1145 264T916 59T610 -16ZM636 244Q722 244 787 307T895
471T960 690T982 914Q982 1044 953 1117T875 1220T770 1250Q686 1250 622 1186T514 1020T448 802T426 582Q426 407 490 326T636 244Z" />
<glyph unicode="P" horiz-adv-x="1268" d="M70 0L284 1494H436Q445 1494 486 1496T580 1502T682 1507T756 1510Q1013 1510 1147 1401T1282 1080Q1282 907 1208 774Q1133 636 988 556T642 476Q611 476 561 477T484 478L416 0H70ZM648 734Q795 734 863 821T942 1074Q942
1172 885 1221T694 1270Q675 1270 650 1268T596 1260L522 746Q540 742 576 738T648 734Z" />
<glyph unicode="Q" horiz-adv-x="1362" d="M852 -410Q740 -410 652 -384T512 -299T460 -146Q460 -114 466 -69T486 14L698 12Q698 8 698 -7T698 -28Q698 -77 726 -100T805 -131T924 -138Q1031 -138 1107 -132T1228 -112V-310Q1198 -338 1131 -360T986 -396T852
-410ZM610 -16Q438 -16 318 59T134 265T70 564Q70 755 120 926T266 1228T499 1435T808 1510Q936 1510 1035 1466T1201 1343T1303 1156T1338 924Q1338 734 1289 564T1145 264T916 59T610 -16ZM636 244Q722 244 787 307T895 471T960 690T982 914Q982 1044 953 1117T875
1220T770 1250Q686 1250 622 1186T514 1020T448 802T426 582Q426 407 490 326T636 244Z" />
<glyph unicode="R" horiz-adv-x="1312" d="M70 0L284 1494H480Q514 1494 565 1498T669 1506T762 1510Q1046 1510 1172 1414T1298 1126Q1298 945 1221 811T980 626Q1007 602 1030 564T1075 473T1116 358Q1146 265 1169 196T1211 78T1252 0H870Q860 14 848 54T823
144T800 236T784 298Q774 339 759 384T725 470T688 535T652 560H500L416 0H70ZM726 826Q808 826 859 864T935 965T960 1098Q960 1200 902 1235T730 1270Q707 1270 682 1269T634 1266T596 1260L536 828Q562 827 609 827T726 826Z" />
<glyph unicode="S" horiz-adv-x="1034" d="M382 -16Q341 -16 284 -8T169 13T64 44T-4 78L112 360Q145 335 194 312T297 275T398 260Q469 260 513 279T577 333T598 416Q598 484 552 533T414 652Q342 707 286 771T197 908T164 1064Q164 1207 232 1306T419 1458T686
1510Q802 1510 898 1484T1038 1426L928 1152Q894 1187 821 1212T676 1238Q616 1238 576 1220T515 1170T494 1100Q494 1055 519 1016T587 938T680 858Q761 794 822 731T918 598T952 448Q952 289 877 187T673 34T382 -16Z" />
<glyph unicode="T" horiz-adv-x="1126" d="M306 0L484 1236L132 1226L176 1494H1218L1178 1226L834 1236L658 0H306Z" />
<glyph unicode="U" horiz-adv-x="1406" d="M606 -16Q359 -16 237 99T112 422Q112 457 115 497T126 584L254 1494H600L476 626Q472 587 466 543T460 444Q460 336 506 293T660 250Q745 250 801 300T889 434T938 620L1062 1494H1406L1278 584Q1263 475 1236 388T1170
236Q1091 104 954 44T606 -16Z" />
<glyph unicode="V" horiz-adv-x="1204" d="M320 0L100 1494H446L562 538L578 282L654 538L1000 1494H1368L722 0H320Z" />
<glyph unicode="W" horiz-adv-x="1760" d="M276 0L94 1494H444L500 538L520 320L586 538L838 1164L802 1494H1140L1198 538L1220 320L1272 538L1598 1494H1954L1374 0H970L914 534L896 698L836 534L642 0H276Z" />
<glyph unicode="X" horiz-adv-x="1214" d="M-96 0L454 790L140 1494H510L684 1012L994 1494H1370L838 718L1178 0H800L604 518L290 0H-96Z" />
<glyph unicode="Y" horiz-adv-x="1136" d="M310 0L392 576L82 1494H444L582 982L606 850L664 982L940 1494H1324L738 576L656 0H310Z" />
<glyph unicode="Z" horiz-adv-x="1130" d="M-40 0L-66 86L690 1160L780 1226L208 1216L252 1494H1206L1228 1410L502 348L420 276L1024 286L978 0H-40Z" />
<glyph unicode="[" horiz-adv-x="816" d="M278 -252Q187 -252 136 -205T84 -76Q84 -47 86 -20T92 32L296 1478Q316 1622 374 1691T546 1760Q593 1760 659 1752T785 1732T868 1714L842 1542H594L384 -30H634L612 -198Q530 -222 458 -237T278 -252Z" />
<glyph unicode="\" horiz-adv-x="834" d="M568 -354L6 1560H268L832 -354H568Z" />
<glyph unicode="]" horiz-adv-x="816" d="M590 1760Q682 1760 733 1714T784 1584Q784 1556 783 1529T776 1476L572 30Q553 -114 495 -183T322 -252Q275 -252 209 -244T83 -224T0 -206L26 -34H274L484 1538H234L256 1706Q339 1730 411 1745T590 1760Z" />
<glyph unicode="^" horiz-adv-x="1332" d="M124 498L642 1496H902L1164 498H898L742 1132L392 498H124Z" />
<glyph unicode="_" horiz-adv-x="1304" d="M-108 -378L-88 -182H1256L1238 -378H-108Z" />
<glyph unicode="`" horiz-adv-x="534" d="M398 1198Q359 1212 297 1255T169 1353T54 1458T-10 1538L194 1732L520 1294L398 1198Z" />
<glyph unicode="a" horiz-adv-x="1224" d="M396 -16Q224 -16 146 100T68 402Q68 556 117 688T257 919T474 1073T754 1128Q813 1128 879 1115T998 1084L1176 1128L1020 0H708L718 242Q670 134 588 59T396 -16ZM518 218Q555 218 592 258T662 359T720 483T758 592L804
918Q777 924 730 924Q634 924 568 852Q501 779 467 663T432 422Q432 354 441 309T470 241T518 218Z" />
<glyph unicode="b" horiz-adv-x="1260" d="M504 -16Q446 -16 375 -2T254 32L74 0L294 1596H628L546 954L526 834Q557 914 605 981T718 1088T864 1128Q1037 1128 1114 1011T1192 708Q1192 521 1114 356Q1061 246 974 162T769 31T504 -16ZM528 190Q623 190 692 262Q758
334 792 449T826 686Q826 788 805 839T740 890Q700 890 661 848T588 742T530 614T494 504L450 196Q477 190 528 190Z" />
<glyph unicode="c" horiz-adv-x="934" d="M476 -16Q354 -16 263 43T122 203T72 432Q72 635 150 794Q228 953 366 1040T678 1128Q717 1128 765 1123T858 1108T930 1086L846 752Q827 772 794 797T723 840T652 858Q621 858 588 837T528 780Q485 726 457 647T428 486Q428
368 456 302T570 236Q629 236 696 272T800 348L886 180Q853 128 796 84T658 12T476 -16Z" />
<glyph unicode="d" horiz-adv-x="1244" d="M396 -16Q224 -16 146 100T68 402Q68 590 148 756Q200 867 287 951T492 1081T754 1128Q774 1128 794 1127T834 1124L898 1596H1234L1028 0H716L732 272Q700 195 652 130T540 24T396 -16ZM518 222Q556 222 594 264T665
368T724 495T762 606L804 916Q775 924 730 924Q634 924 568 852Q501 779 467 663T432 422Q432 355 441 311T470 244T518 222Z" />
<glyph unicode="e" horiz-adv-x="1086" d="M494 -16Q348 -16 256 46Q160 108 116 209T72 432Q72 631 156 790Q239 951 382 1039T700 1128Q812 1128 885 1095T995 1005T1032 872Q1032 772 987 694T860 555T671 451T438 374Q438 367 438 360T438 346Q444 282 476
251T580 220Q635 220 698 245T815 307T896 380L986 212Q949 162 894 120T772 48T634 1T494 -16ZM434 548Q481 551 527 576T611 642T673 733T696 838Q696 891 680 914T622 938Q586 938 559 904T500 820Q458 753 447 676T434 548Z" />
<glyph unicode="f" horiz-adv-x="748" d="M108 0L232 902H112L152 1114H260L280 1216Q288 1276 308 1330T360 1432Q425 1527 526 1578T758 1630Q814 1630 857 1624T932 1606L872 1374Q860 1386 824 1403T752 1420Q700 1420 669 1386T624 1268L596 1114H780L754
902H572L448 0H108Z" />
<glyph unicode="g" horiz-adv-x="1240" d="M384 -504Q339 -504 286 -498T187 -481T120 -460L170 -212Q189 -228 238 -248T346 -284T450 -300Q548 -300 595 -248T660 -94L722 250Q673 141 592 63T396 -16Q224 -16 146 100T68 402Q68 590 148 756Q200 867 287 951T492
1081T754 1128Q813 1128 880 1115T996 1084L1180 1128L1020 -28Q1008 -116 978 -187T904 -312Q817 -415 682 -459T384 -504ZM518 222Q555 222 592 262T662 362T720 485T758 594L802 920Q787 922 769 923T730 924Q634 924 568 852Q501 779 467 663T432 422Q432 355
441 311T470 244T518 222Z" />
<glyph unicode="h" horiz-adv-x="1284" d="M76 0L292 1596H630L558 1046L530 900Q596 1008 691 1068T898 1128Q1030 1128 1099 1060T1168 834Q1168 823 1162 765T1144 621T1120 438T1095 251T1073 93T1058 0H710Q719 60 727 116T742 224T755 323T767 414T778 498Q790
599 797 666T806 770Q808 823 788 844T726 866Q690 866 650 843T573 779T508 682L416 0H76Z" />
<glyph unicode="i" horiz-adv-x="648" d="M78 0L230 1114H582L426 0H78ZM448 1282Q384 1282 333 1330T282 1442Q282 1526 340 1584T488 1642Q560 1642 610 1596T660 1484Q660 1396 604 1339T448 1282Z" />
<glyph unicode="j" horiz-adv-x="648" d="M-92 -516Q-152 -516 -198 -508T-268 -482L-198 -300Q-190 -304 -173 -309T-144 -314Q-97 -314 -59 -278T9 -184T58 -60T86 64L230 1114H582L426 0Q407 -150 336 -266T155 -449T-92 -516ZM425 1272Q361 1272 310 1320T259
1432Q259 1516 317 1574T465 1632Q537 1632 587 1586T637 1474Q637 1386 581 1329T425 1272Z" />
<glyph unicode="k" horiz-adv-x="1198" d="M76 0L292 1596H632L416 0H76ZM772 0L530 616Q596 653 660 734T774 916T848 1114H1192Q1189 1038 1160 963T1084 821T977 698T854 608L1170 0H772Z" />
<glyph unicode="l" horiz-adv-x="650" d="M82 0L296 1596H646L430 0H82Z" />
<glyph unicode="m" horiz-adv-x="1918" d="M74 0L226 1114H562L548 916Q619 1017 711 1072T916 1128Q1029 1128 1095 1077T1174 906Q1242 1010 1337 1069T1546 1128Q1674 1128 1741 1060T1808 834Q1808 809 1799 725T1770 498Q1752 374 1735 250T1700 0H1352Q1360
62 1368 119T1383 228T1396 327T1407 417T1418 498Q1429 581 1438 654T1448 770Q1450 823 1430 844T1368 866Q1319 866 1264 822T1166 700Q1165 693 1162 669T1154 606Q1146 550 1136 474T1114 317T1093 167T1076 51T1068 0H720Q731 75 741 143T759 274T775 393T788
498Q800 599 807 666T816 770Q818 823 798 844T736 866Q710 866 681 853T623 817T567 762T518 690L422 0H74Z" />
<glyph unicode="n" horiz-adv-x="1288" d="M74 0L226 1114H560L546 912Q614 1014 706 1071T908 1128Q1040 1128 1109 1060T1178 834Q1178 812 1172 755T1156 628T1138 500Q1135 480 1128 426T1111 303T1092 166T1076 53T1068 0H720Q735 100 747 188T770 354T788
498Q800 599 807 666T816 770Q818 823 798 844T736 866Q709 866 680 853T621 816T566 757T518 682L422 0H74Z" />
<glyph unicode="o" horiz-adv-x="1154" d="M470 -16Q332 -16 242 45T108 214T64 458Q64 641 136 794Q207 947 346 1037T684 1128Q822 1128 912 1068T1046 901T1090 656Q1090 475 1020 320Q948 167 808 76T470 -16ZM516 194Q579 194 622 240T691 360T728 520T740
688Q740 748 732 801T701 887T632 920Q571 920 529 871T460 744T422 580T410 418Q410 306 437 250T516 194Z" />
<glyph unicode="p" horiz-adv-x="1254" d="M8 -480L226 1114H544L542 886Q592 988 671 1058T858 1128Q1032 1128 1109 1014T1186 714Q1186 525 1108 360Q1056 248 969 164T764 32T500 -16Q460 -16 418 -10L352 -480H8ZM524 190Q620 190 688 264Q754 338 788 454T822
694Q822 777 806 833T736 890Q698 890 659 848T586 743T528 615T492 504L448 194Q462 193 481 192T524 190Z" />
<glyph unicode="q" horiz-adv-x="1248" d="M622 -480L686 0L730 270Q699 193 651 128T539 24T396 -16Q224 -16 146 100T68 402Q68 556 117 688T257 919T474 1073T754 1128Q814 1128 885 1115T1004 1084L1178 1128L964 -480H622ZM518 222Q553 222 589 260T657 356T715
474T754 580L800 920Q785 922 768 923T730 924Q652 924 596 878T503 758T450 595T432 422Q432 355 441 311T470 244T518 222Z" />
<glyph unicode="r" horiz-adv-x="884" d="M76 0L228 1114H564L548 882Q570 947 612 1003T711 1093T834 1128Q887 1128 902 1116L840 762Q833 774 803 781T744 788Q701 788 665 780T595 752T526 702L424 0H76Z" />
<glyph unicode="s" horiz-adv-x="954" d="M378 -16Q322 -16 256 -7T135 18T54 52L110 326Q129 305 178 283T281 244T370 228Q436 228 474 245T512 308Q512 342 488 369T418 429T308 512Q238 572 199 640T160 804Q160 915 222 987T386 1093T612 1128Q660 1128 714
1123T811 1109T872 1092L834 800Q814 821 777 841T694 875T604 888Q544 888 513 867T482 810Q482 773 512 741T581 680T644 628Q707 580 751 535T817 440T840 324Q840 201 777 127T609 18T378 -16Z" />
<glyph unicode="t" horiz-adv-x="820" d="M344 -20Q238 -20 176 35T114 190Q114 199 117 233T124 309T134 388L204 902H122L158 1114H260L356 1382H618L580 1114H798L776 902H554Q531 735 516 627T492 455T479 358T474 310T472 282Q472 252 486 235T540 218Q561
218 593 229T657 259T710 298L764 132Q712 92 648 58T507 2T344 -20Z" />
<glyph unicode="u" horiz-adv-x="1252" d="M382 -20Q262 -20 185 41T108 236Q108 290 117 376T144 580Q156 669 168 758T192 936T216 1114H562Q555 1060 548 1006T534 899T520 792T506 684T492 576Q479 477 473 414T466 324Q466 278 486 253T534 228Q567 228 603
252T674 316T738 408L836 1114H1184L1032 0H722L728 190Q673 102 582 41T382 -20Z" />
<glyph unicode="v" horiz-adv-x="1112" d="M244 -20L190 346L90 1114H434L494 464L508 270L556 334Q615 426 659 547T722 798Q729 834 735 890T746 1007T750 1114H1070Q1070 1101 1076 1073T1082 958Q1082 837 1043 712T931 462T752 218T516 -8L244 -20Z" />
<glyph unicode="w" horiz-adv-x="1722" d="M244 -12L190 346L90 1114H442L500 464L512 260L570 334Q611 397 648 472T714 629T756 792L724 1114H1058L1106 464L1118 260L1176 334Q1215 395 1250 474T1311 642T1350 818Q1358 877 1364 960T1370 1114H1680Q1680
1102 1685 1062T1690 958Q1690 791 1626 630T1433 310T1112 -8L858 -12L824 208L806 332Q766 266 723 210T628 101T512 -8L244 -12Z" />
<glyph unicode="x" horiz-adv-x="1028" d="M-102 0L338 586L44 1114H444L568 806L758 1114H1106L694 546L1008 0H610L468 324L256 0H-102Z" />
<glyph unicode="y" horiz-adv-x="1114" d="M164 -504Q92 -504 28 -483T-90 -432L-2 -194Q33 -218 81 -235T166 -252Q211 -252 264 -220T368 -135T460 -20H258L204 346L92 1114H436L508 444L542 134Q574 202 602 275T656 428Q690 524 708 603T736 766T752 956Q755
989 755 1025T756 1114H1068Q1071 1099 1072 1062T1074 964Q1074 816 1038 657T928 324Q877 205 805 78T652 -166T492 -372Q438 -430 358 -467T164 -504Z" />
<glyph unicode="z" horiz-adv-x="960" d="M-10 0L-44 44L498 816L548 852H130L166 1114H968L1002 1070L470 296L428 266H874L846 0H-10Z" />
<glyph unicode="{" horiz-adv-x="940" d="M400 -266Q297 -266 248 -219T208 -90L290 556Q295 592 261 618T175 661T78 688L110 886Q203 907 256 924T332 961T360 1010L432 1514Q452 1648 533 1709T710 1770Q743 1770 785 1766T871 1754T958 1736T1032 1714L1002
1542H732L654 960Q647 911 615 878T521 821T368 774Q430 748 484 723T570 668T596 598L508 -30H778L756 -190Q660 -227 572 -246T400 -266Z" />
<glyph unicode="|" horiz-adv-x="834" d="M312 -182V1738H560V-182H312Z" />
<glyph unicode="}" horiz-adv-x="940" d="M592 1770Q696 1770 745 1724T784 1594L702 948Q697 912 731 886T817 843T914 816L882 618Q789 597 736 580T660 543T632 494L560 -10Q541 -143 460 -204T282 -266Q249 -266 207 -262T121 -250T34 -232T-40 -210L-10 -38H260L338
544Q345 593 377 626T471 684T624 730Q562 756 508 781T422 836T396 906L484 1534H214L236 1694Q332 1732 421 1751T592 1770Z" />
<glyph unicode="~" horiz-adv-x="1110" d="M786 656Q714 656 660 685T556 754Q504 795 469 814T386 834Q344 834 302 808T218 728L74 866Q89 918 144 967T271 1048T408 1080Q480 1080 537 1050T646 984Q696 947 729 930T800 912Q853 912 897 938T978 1016L1110
880Q1095 823 1044 772T923 688T786 656Z" />
<glyph unicode="&#xa0;" horiz-adv-x="360" />
<glyph unicode="&#xa1;" horiz-adv-x="670" d="M18 -424L254 836H506L374 -424H18ZM408 982Q326 982 288 1023T250 1128Q250 1224 307 1282T458 1340Q529 1340 569 1299T610 1192Q610 1108 554 1045T408 982Z" />
<glyph unicode="&#xa2;" horiz-adv-x="1052" d="M288 -268L338 10Q211 57 150 173T88 432Q88 554 119 665T209 866T354 1020T548 1112L612 1394H846L784 1124Q838 1117 879 1108T948 1086L864 752Q844 772 811 797T739 840T668 858Q613 858 572 826T502 740T459
620T444 486Q444 368 472 302T586 236Q645 236 712 272T816 348L904 180Q861 114 776 59T568 -10L522 -268H288Z" />
<glyph unicode="&#xa3;" horiz-adv-x="1456" d="M118 -20Q43 -20 3 18T-38 114Q-38 173 3 216T105 284T230 310Q250 336 268 373T296 470L336 702H172L200 928H376L400 1074Q424 1209 494 1306T672 1456T922 1508Q1089 1508 1180 1472T1326 1392L1158 1142Q1150
1170 1118 1202T1038 1258T940 1282Q880 1282 838 1259T768 1185T728 1050L708 928H1006L978 702H670Q664 660 657 618T644 534Q628 443 599 378T540 280Q575 269 631 258T747 238T854 230Q976 230 1041 268T1106 372Q1106 405 1082 440T1036 486L1240 652Q1288
630 1325 582T1384 477T1406 368Q1406 264 1365 176T1221 34T936 -20Q802 -20 701 1T512 48T328 84Q291 38 231 9T118 -20Z" />
<glyph unicode="&#xa4;" horiz-adv-x="1500" d="M338 100L200 238L404 442Q370 492 352 551T334 674Q334 737 351 794T402 904L196 1108L334 1248L540 1040Q643 1102 764 1102Q827 1102 885 1086T998 1034L1200 1234L1336 1096L1134 892Q1194 793 1194 674Q1194
613 1178 556T1128 448L1334 242L1196 104L990 310Q939 279 883 263T764 246Q704 246 649 261T544 306L338 100ZM764 462Q820 462 865 491T937 569T964 674Q964 732 938 779T866 855T764 884Q708 884 662 856T589 779T562 674Q562 617 589 569T662 492T764 462Z"
/>
<glyph unicode="&#xa5;" horiz-adv-x="1544" d="M504 0L544 316H150L168 494H566L588 664H188L208 842H518L264 1494H612L774 948L802 842L846 948L1116 1494H1528L1078 842H1374L1356 664H956L930 494H1332L1316 316H906L862 0H504Z" />
<glyph unicode="&#xa6;" horiz-adv-x="834" d="M312 -182V662H560V-182H312ZM312 894V1738H560V894H312Z" />
<glyph unicode="&#xa7;" horiz-adv-x="1372" d="M314 1294Q327 1383 375 1447T497 1553T656 1614T830 1634Q971 1634 1059 1611T1190 1562L1104 1302Q1077 1325 1012 1354T826 1382Q780 1382 742 1373T678 1342T646 1282Q641 1246 671 1218T755 1163T873 1109T1000
1044T1113 960T1189 845T1202 690Q1184 561 1089 464T862 298L740 344Q764 370 801 420T869 524T906 620Q915 682 884 726T797 806T671 873T534 941T412 1025T329 1137T314 1294ZM1074 176Q1060 79 1009 10T883 -103T720 -167T542 -188Q403 -188 294 -159T142 -98L230
164Q262 136 343 101T548 66Q597 67 638 77T706 111T738 174Q743 208 712 234T627 282T508 330T379 389T264 468T188 580T174 734Q191 851 282 942T500 1094L636 1036Q613 1010 578 973T514 892T478 808Q470 750 501 711T590 642T716 585T853 526T977 448T1059
337T1074 176Z" />
<glyph unicode="&#xa8;" horiz-adv-x="798" d="M600 1306Q543 1306 500 1356T456 1466Q456 1547 504 1604T632 1662Q698 1662 743 1615T788 1508Q788 1420 740 1363T600 1306ZM140 1306Q82 1306 38 1357T-6 1466Q-6 1549 43 1605T172 1662Q237 1662 280 1615T324
1508Q324 1418 278 1362T140 1306Z" />
<glyph unicode="&#xa9;" horiz-adv-x="2042" d="M170 940Q170 1119 235 1274T417 1545T688 1728T1020 1794Q1199 1794 1353 1728T1624 1546T1806 1274T1872 940Q1872 762 1807 606T1625 333T1354 149T1020 82Q842 82 688 148T418 332T236 606T170 940ZM310 940Q310
789 363 656T512 423T737 265T1020 208Q1174 208 1304 265T1530 422T1679 656T1732 940Q1732 1092 1679 1224T1530 1457T1304 1615T1020 1672Q867 1672 738 1615T512 1458T363 1225T310 940ZM584 932Q584 1070 638 1180T801 1355T1068 1420Q1151 1420 1218 1403T1316
1368L1280 1166Q1250 1189 1191 1204T1072 1220Q966 1220 899 1151T830 968Q829 806 898 737T1074 668Q1152 668 1208 688T1292 730L1336 560Q1291 521 1208 491T1026 460Q892 460 793 525T640 697T584 932Z" />
<glyph unicode="&#xaa;" horiz-adv-x="940" d="M346 708Q225 708 158 780T90 974Q90 1125 166 1256Q243 1385 376 1462T676 1540Q723 1540 776 1531T870 1510L1026 1536L870 708H656L650 860Q584 793 507 751T346 708ZM462 894Q500 894 544 925T632 1006L718 1392Q708
1395 696 1396T670 1398Q573 1398 510 1332Q444 1266 413 1175T382 1006Q382 948 399 921T462 894Z" />
<glyph unicode="&#xab;" horiz-adv-x="1964" d="M794 128L154 518L186 704L910 1090L966 890L546 590L902 296L794 128ZM1582 128L942 518L974 704L1698 1090L1754 890L1334 590L1690 296L1582 128Z" />
<glyph unicode="&#xac;" horiz-adv-x="1338" d="M848 314L884 612H198L222 834H1160L1100 314H848Z" />
<glyph unicode="&#xad;" horiz-adv-x="1224" d="M204 592L240 836H1060L1024 592H204Z" />
<glyph unicode="&#xae;" horiz-adv-x="2042" d="M166 940Q166 1118 232 1273T415 1545T687 1728T1020 1794Q1199 1794 1354 1728T1626 1545T1810 1273T1876 940Q1876 762 1810 606T1627 333T1354 149T1020 82Q842 82 687 148T415 332T232 606T166 940ZM306 940Q306
789 360 656T511 423T739 265T1020 208Q1172 208 1302 265T1530 422T1682 656T1736 940Q1736 1091 1682 1223T1531 1455T1303 1613T1020 1670Q869 1670 739 1613T512 1456T360 1223T306 940ZM684 474V1416Q708 1416 731 1416T778 1416Q819 1416 853 1417T930 1419T1036
1420Q1216 1420 1305 1344T1394 1152Q1394 1044 1354 957T1206 840Q1255 812 1285 767T1340 671T1392 572Q1406 550 1418 530T1458 476H1208Q1193 493 1184 513T1160 560Q1141 599 1120 651T1069 750T992 816Q986 815 969 815T934 814T904 814V474H684ZM904 974Q918
971 938 970T980 968T1020 968Q1095 968 1134 1007T1174 1124Q1174 1190 1136 1226T1002 1260Q975 1260 953 1259T904 1250V974Z" />
<glyph unicode="&#xaf;" horiz-adv-x="606" d="M16 1362L34 1576H616L598 1362H16Z" />
<glyph unicode="&#xb0;" horiz-adv-x="934" d="M548 894Q455 894 372 940Q293 987 248 1065T202 1238Q202 1339 250 1420Q297 1503 380 1549T570 1596Q665 1596 748 1550Q829 1504 874 1426T920 1252Q920 1151 872 1070Q824 988 740 941T548 894ZM556 1076Q628
1076 674 1126T720 1250Q720 1318 675 1367T564 1416Q492 1416 446 1366T400 1242Q400 1175 446 1126T556 1076Z" />
<glyph unicode="&#xb1;" horiz-adv-x="1324" d="M486 244L518 514L542 646L420 638H178L212 896H456L570 884L578 1020L608 1292H874L848 1020L824 886L918 896H1188L1154 638H886L792 646L786 514L752 244H486ZM160 0L176 202H1060L1044 0H160Z" />
<glyph unicode="&#xb2;" horiz-adv-x="1078" d="M106 0L66 114Q168 194 266 275T445 436T572 591T620 732Q620 780 607 814T563 866T482 884Q415 884 372 868T280 820L168 990Q201 1014 253 1044T380 1097T556 1120Q637 1120 707 1096T829 1027T910 919T940 778Q940
673 890 586T763 428T608 306T474 218L944 226V0H106Z" />
<glyph unicode="&#xb3;" horiz-adv-x="1030" d="M372 -10Q273 -10 213 -1T110 18L140 248Q167 241 212 232T320 222Q389 222 446 238T539 285T574 358Q574 390 557 421T488 468L344 430L356 632Q409 637 455 652T536 690T590 743T610 810Q610 843 580 869T470
896Q457 896 418 890T335 869T262 830L170 1014Q195 1038 256 1063T399 1105T564 1122Q660 1122 738 1091T863 1004T910 878Q910 800 888 740T812 635T666 558Q746 552 807 532T902 470T936 358Q936 274 893 206T772 90T592 16T372 -10Z" />
<glyph unicode="&#xb4;" horiz-adv-x="552" d="M140 1198L18 1294L344 1732L548 1538Q535 1509 484 1458T367 1352T238 1254T140 1198Z" />
<glyph unicode="&#xb5;" horiz-adv-x="1332" d="M50 -364L210 782Q214 799 214 824T206 868T182 888Q158 888 140 878T98 844L50 1004Q73 1027 126 1056T244 1106T370 1128Q462 1128 520 1086T578 960Q578 949 571 891T554 750T533 586T515 444T508 370Q508 303
534 270T612 236Q643 236 681 259T748 320T784 404L876 1114H1218Q1202 978 1188 862T1161 642T1135 442T1112 250Q1109 225 1120 208T1144 190Q1170 190 1202 211T1252 260L1328 130Q1289 91 1247 58T1150 3T1020 -18Q938 -18 892 12T828 120Q801 73 768 43T696
-1T612 -16Q566 -16 513 1T440 58L376 -364H50Z" />
<glyph unicode="&#xb6;" horiz-adv-x="1392" d="M366 0L466 662Q359 665 280 718T156 861T112 1060Q112 1222 191 1327T411 1483T734 1534Q793 1534 868 1530T1012 1521T1118 1516H1458L1434 1328L1270 1296L1100 0H826L994 1292H804L636 0H366Z" />
<glyph unicode="&#xb7;" horiz-adv-x="670" d="M298 602Q228 602 187 643T146 750Q146 836 202 898T348 960Q431 960 468 920T506 814Q506 720 450 661T298 602Z" />
<glyph unicode="&#xb8;" horiz-adv-x="0" d="M194 -460Q100 -460 32 -443T-54 -416L-18 -218Q-4 -224 35 -234T132 -244Q191 -244 237 -205T284 -98Q284 -42 276 -17T262 30L304 34L404 30Q424 2 445 -51T466 -188Q466 -324 392 -392T194 -460Z" />
<glyph unicode="&#xb9;" horiz-adv-x="736" d="M166 0L284 812Q239 799 212 800T132 794L94 972Q175 990 265 1035T418 1120H420L634 1098L482 0H166Z" />
<glyph unicode="&#xba;" horiz-adv-x="928" d="M456 700Q353 700 272 743T145 865T98 1046Q98 1196 167 1310T352 1488T612 1552Q727 1552 809 1510T936 1390T980 1206Q980 1048 912 935T726 761T456 700ZM484 864Q563 864 609 915T674 1046T694 1216Q694 1311
670 1352T586 1394Q523 1394 477 1347T406 1226T380 1074Q380 984 405 924T484 864Z" />
<glyph unicode="&#xbb;" horiz-adv-x="1964" d="M1066 120L1010 320L1430 618L1074 912L1180 1080L1822 692L1790 506L1066 120ZM278 120L222 320L642 618L286 912L394 1080L1034 692L1004 506L278 120Z" />
<glyph unicode="&#xbc;" horiz-adv-x="2164" d="M248 620L366 1432Q321 1419 294 1420T214 1414L176 1592Q257 1610 347 1655T500 1740H502L716 1718L564 620H248ZM1334 1896H1572L654 -102H416L1334 1896ZM1608 0L1640 218H1188L1108 380Q1146 439 1194 530T1293
726T1389 935T1466 1120H1836L1848 1092L1508 522L1440 432L1668 446L1720 784L2000 808L1960 452L2094 460L2060 218H1930L1902 0H1608Z" />
<glyph unicode="&#xbd;" horiz-adv-x="2198" d="M248 620L366 1432Q321 1419 294 1420T214 1414L176 1592Q257 1610 347 1655T500 1740H502L716 1718L564 620H248ZM1334 1896H1572L654 -102H416L1334 1896ZM1226 0L1186 114Q1288 194 1386 275T1565 436T1692 591T1740
732Q1740 780 1727 814T1683 866T1602 884Q1535 884 1492 868T1400 820L1288 990Q1321 1014 1373 1044T1500 1097T1676 1120Q1757 1120 1827 1096T1949 1027T2030 919T2060 778Q2060 673 2010 586T1883 428T1728 306T1594 218L2064 226V0H1226Z" />
<glyph unicode="&#xbe;" horiz-adv-x="2478" d="M454 610Q355 610 295 619T192 638L222 868Q249 861 294 852T402 842Q471 842 528 858T621 905T656 978Q656 1010 639 1041T570 1088L426 1050L438 1252Q491 1257 537 1272T618 1310T672 1363T692 1430Q692 1463
662 1489T552 1516Q539 1516 500 1510T417 1489T344 1450L252 1634Q277 1658 338 1683T481 1725T646 1742Q742 1742 820 1711T945 1624T992 1498Q992 1420 970 1360T894 1255T748 1178Q828 1172 889 1152T984 1090T1018 978Q1018 894 975 826T854 710T674 636T454
610ZM1648 1896H1886L968 -102H730L1648 1896ZM1922 0L1954 218H1502L1422 380Q1460 439 1508 530T1607 726T1703 935T1780 1120H2150L2162 1092L1822 522L1754 432L1982 446L2034 784L2314 808L2274 452L2408 460L2374 218H2244L2216 0H1922Z" />
<glyph unicode="&#xbf;" horiz-adv-x="930" d="M798 812Q821 775 832 736T844 632Q844 584 822 542T767 462T698 394Q628 332 561 285T440 197T353 110T320 6Q320 -41 354 -78T454 -138T618 -160Q674 -160 724 -154T820 -138L766 -362Q741 -384 678 -399T556 -414Q395
-414 272 -375T78 -248T8 -18Q8 99 79 196T320 384Q363 407 413 441T509 518T584 607T614 700Q614 732 609 764T598 808L798 812ZM718 1340Q789 1340 829 1299T870 1192Q870 1107 814 1045T668 982Q586 982 548 1022T510 1128Q510 1223 567 1281T718 1340Z" />
<glyph unicode="&#xc0;" horiz-adv-x="1314" d="M-120 0L602 1494H1042L1264 0H916L886 280H376L260 0H-120ZM470 514H858L784 1174L778 1290L740 1174L470 514ZM942 1634Q903 1648 841 1691T713 1789T597 1894T532 1974L738 2168L1064 1730L942 1634Z" />
<glyph unicode="&#xc1;" horiz-adv-x="1314" d="M-120 0L602 1494H1042L1264 0H916L886 280H376L260 0H-120ZM470 514H858L784 1174L778 1290L740 1174L470 514ZM814 1634L692 1730L1018 2168L1222 2002Q1211 1979 1176 1938T1091 1849T989 1756T890 1677T814 1634Z" />
<glyph unicode="&#xc2;" horiz-adv-x="1314" d="M-120 0L602 1494H1042L1264 0H916L886 280H376L260 0H-120ZM470 514H858L784 1174L778 1290L740 1174L470 514ZM596 1618L462 1684L824 2048H1000L1208 1684L1056 1618L880 1788L596 1618Z" />
<glyph unicode="&#xc3;" horiz-adv-x="1314" d="M-120 0L602 1494H1042L1264 0H916L886 280H376L260 0H-120ZM470 514H858L784 1174L778 1290L740 1174L470 514ZM1016 1644Q952 1644 906 1668T824 1730Q796 1762 774 1778T714 1794Q675 1794 647 1779T580 1708L486
1840Q515 1897 553 1936T635 1996T726 2016Q786 2016 830 1997T908 1936Q935 1905 955 1888T1004 1870Q1033 1870 1058 1883T1105 1922T1144 1990L1250 1848Q1232 1800 1196 1753T1112 1675T1016 1644Z" />
<glyph unicode="&#xc4;" horiz-adv-x="1314" d="M-120 0L602 1494H1042L1264 0H916L886 280H376L260 0H-120ZM470 514H858L784 1174L778 1290L740 1174L470 514ZM620 1658Q562 1658 518 1709T474 1818Q474 1901 523 1957T652 2014Q718 2014 762 1967T806 1860Q806
1770 760 1714T620 1658ZM1080 1658Q1023 1658 980 1708T936 1818Q936 1899 984 1956T1112 2014Q1178 2014 1223 1967T1268 1860Q1268 1772 1220 1715T1080 1658Z" />
<glyph unicode="&#xc5;" horiz-adv-x="1314" d="M-120 0L602 1494H1042L1264 0H916L886 280H376L260 0H-120ZM470 514H858L784 1174L778 1290L740 1174L470 514ZM844 1626Q702 1626 620 1688T538 1864Q538 1969 598 2038Q658 2106 745 2135T920 2164Q1057 2164
1137 2105T1218 1932Q1218 1833 1164 1764Q1110 1694 1025 1660T844 1626ZM866 1766Q934 1766 981 1797T1028 1904Q1028 1957 988 1992T896 2028Q829 2028 780 1993T730 1886Q730 1837 772 1802T866 1766Z" />
<glyph unicode="&#xc6;" horiz-adv-x="1938" d="M-118 0L626 1296L390 1328L418 1494H1938L1902 1226L1354 1228L1306 898L1716 904L1680 634L1270 642L1216 264L1834 274L1798 0H832L874 290H418L264 0H-118ZM550 534H908L1010 1240L932 1248L550 534Z" />
<glyph unicode="&#xc7;" horiz-adv-x="1164" d="M610 -16Q418 -16 300 72Q182 161 132 301T82 610Q82 853 184 1060Q285 1267 465 1388T874 1510Q927 1510 976 1505T1082 1484T1218 1442L1118 1114Q1075 1155 1005 1186T838 1218Q699 1218 610 1132Q519 1045 477
908T434 610Q434 491 461 415T548 301T702 264Q761 264 819 277T925 311T1002 352L1048 110Q1025 91 975 69T861 28T731 -4T610 -16ZM444 -460Q350 -460 282 -443T196 -416L232 -218Q246 -224 285 -234T382 -244Q441 -244 487 -205T534 -98Q534 -42 526 -17T512
30L554 34L654 30Q674 2 695 -51T716 -188Q716 -324 642 -392T444 -460Z" />
<glyph unicode="&#xc8;" horiz-adv-x="1176" d="M70 0L284 1494H1176L1140 1226L592 1228L544 898L954 904L918 634L508 642L454 264L1072 274L1036 0H70ZM864 1634Q825 1648 763 1691T635 1789T519 1894T454 1974L660 2168L986 1730L864 1634Z" />
<glyph unicode="&#xc9;" horiz-adv-x="1176" d="M70 0L284 1494H1176L1140 1226L592 1228L544 898L954 904L918 634L508 642L454 264L1072 274L1036 0H70ZM736 1634L614 1730L940 2168L1144 2002Q1133 1979 1098 1938T1013 1849T911 1756T812 1677T736 1634Z" />
<glyph unicode="&#xca;" horiz-adv-x="1176" d="M70 0L284 1494H1176L1140 1226L592 1228L544 898L954 904L918 634L508 642L454 264L1072 274L1036 0H70ZM518 1618L384 1684L746 2048H922L1130 1684L978 1618L802 1788L518 1618Z" />
<glyph unicode="&#xcb;" horiz-adv-x="1176" d="M70 0L284 1494H1176L1140 1226L592 1228L544 898L954 904L918 634L508 642L454 264L1072 274L1036 0H70ZM542 1658Q484 1658 440 1709T396 1818Q396 1901 445 1957T574 2014Q640 2014 684 1967T728 1860Q728 1770
682 1714T542 1658ZM1002 1658Q945 1658 902 1708T858 1818Q858 1899 906 1956T1034 2014Q1100 2014 1145 1967T1190 1860Q1190 1772 1142 1715T1002 1658Z" />
<glyph unicode="&#xcc;" horiz-adv-x="690" d="M96 0L310 1494H656L442 0H96ZM594 1634Q555 1648 493 1691T365 1789T249 1894T184 1974L390 2168L716 1730L594 1634Z" />
<glyph unicode="&#xcd;" horiz-adv-x="690" d="M96 0L310 1494H656L442 0H96ZM466 1634L344 1730L670 2168L874 2002Q863 1979 828 1938T743 1849T641 1756T542 1677T466 1634Z" />
<glyph unicode="&#xce;" horiz-adv-x="690" d="M96 0L310 1494H656L442 0H96ZM248 1618L114 1684L476 2048H652L860 1684L708 1618L532 1788L248 1618Z" />
<glyph unicode="&#xcf;" horiz-adv-x="690" d="M96 0L310 1494H656L442 0H96ZM272 1658Q214 1658 170 1709T126 1818Q126 1901 175 1957T304 2014Q370 2014 414 1967T458 1860Q458 1770 412 1714T272 1658ZM732 1658Q675 1658 632 1708T588 1818Q588 1899 636
1956T764 2014Q830 2014 875 1967T920 1860Q920 1772 872 1715T732 1658Z" />
<glyph unicode="&#xd0;" horiz-adv-x="1390" d="M844 902L820 658H28L52 902H844ZM556 -16Q499 -16 426 -12T291 -4T210 0H70L284 1494H436Q443 1494 480 1495T570 1499T675 1504T766 1508T814 1510Q1110 1510 1246 1352T1382 910Q1382 710 1327 541T1164 247T904
53T556 -16ZM604 238Q744 238 840 328Q935 418 980 571T1026 916Q1026 1047 996 1122Q966 1196 906 1225T744 1254Q710 1254 667 1251T594 1242L454 258Q484 248 521 243T604 238Z" />
<glyph unicode="&#xd1;" horiz-adv-x="1464" d="M70 0L284 1494H584L932 720L1008 466L1022 720L1116 1494H1450L1236 0H946L606 814L510 1082L512 814L400 0H70ZM1046 1644Q982 1644 936 1668T854 1730Q826 1762 804 1778T744 1794Q705 1794 677 1779T610 1708L516
1840Q545 1897 583 1936T665 1996T756 2016Q816 2016 860 1997T938 1936Q965 1905 985 1888T1034 1870Q1063 1870 1088 1883T1135 1922T1174 1990L1280 1848Q1262 1800 1226 1753T1142 1675T1046 1644Z" />
<glyph unicode="&#xd2;" horiz-adv-x="1360" d="M610 -16Q438 -16 318 59T134 265T70 564Q70 755 120 926T266 1228T499 1435T808 1510Q936 1510 1035 1466T1201 1343T1303 1156T1338 924Q1338 734 1289 564T1145 264T916 59T610 -16ZM636 244Q722 244 787 307T895
471T960 690T982 914Q982 1044 953 1117T875 1220T770 1250Q686 1250 622 1186T514 1020T448 802T426 582Q426 407 490 326T636 244ZM928 1634Q889 1648 827 1691T699 1789T583 1894T518 1974L724 2168L1050 1730L928 1634Z" />
<glyph unicode="&#xd3;" horiz-adv-x="1360" d="M610 -16Q438 -16 318 59T134 265T70 564Q70 755 120 926T266 1228T499 1435T808 1510Q936 1510 1035 1466T1201 1343T1303 1156T1338 924Q1338 734 1289 564T1145 264T916 59T610 -16ZM636 244Q722 244 787 307T895
471T960 690T982 914Q982 1044 953 1117T875 1220T770 1250Q686 1250 622 1186T514 1020T448 802T426 582Q426 407 490 326T636 244ZM800 1634L678 1730L1004 2168L1208 2002Q1197 1979 1162 1938T1077 1849T975 1756T876 1677T800 1634Z" />
<glyph unicode="&#xd4;" horiz-adv-x="1360" d="M610 -16Q438 -16 318 59T134 265T70 564Q70 755 120 926T266 1228T499 1435T808 1510Q936 1510 1035 1466T1201 1343T1303 1156T1338 924Q1338 734 1289 564T1145 264T916 59T610 -16ZM636 244Q722 244 787 307T895
471T960 690T982 914Q982 1044 953 1117T875 1220T770 1250Q686 1250 622 1186T514 1020T448 802T426 582Q426 407 490 326T636 244ZM582 1618L448 1684L810 2048H986L1194 1684L1042 1618L866 1788L582 1618Z" />
<glyph unicode="&#xd5;" horiz-adv-x="1360" d="M610 -16Q438 -16 318 59T134 265T70 564Q70 755 120 926T266 1228T499 1435T808 1510Q936 1510 1035 1466T1201 1343T1303 1156T1338 924Q1338 734 1289 564T1145 264T916 59T610 -16ZM636 244Q722 244 787 307T895
471T960 690T982 914Q982 1044 953 1117T875 1220T770 1250Q686 1250 622 1186T514 1020T448 802T426 582Q426 407 490 326T636 244ZM1002 1644Q938 1644 892 1668T810 1730Q782 1762 760 1778T700 1794Q661 1794 633 1779T566 1708L472 1840Q501 1897 539 1936T621
1996T712 2016Q772 2016 816 1997T894 1936Q921 1905 941 1888T990 1870Q1019 1870 1044 1883T1091 1922T1130 1990L1236 1848Q1218 1800 1182 1753T1098 1675T1002 1644Z" />
<glyph unicode="&#xd6;" horiz-adv-x="1360" d="M610 -16Q438 -16 318 59T134 265T70 564Q70 755 120 926T266 1228T499 1435T808 1510Q936 1510 1035 1466T1201 1343T1303 1156T1338 924Q1338 734 1289 564T1145 264T916 59T610 -16ZM636 244Q722 244 787 307T895
471T960 690T982 914Q982 1044 953 1117T875 1220T770 1250Q686 1250 622 1186T514 1020T448 802T426 582Q426 407 490 326T636 244ZM606 1658Q548 1658 504 1709T460 1818Q460 1901 509 1957T638 2014Q704 2014 748 1967T792 1860Q792 1770 746 1714T606 1658ZM1066
1658Q1009 1658 966 1708T922 1818Q922 1899 970 1956T1098 2014Q1164 2014 1209 1967T1254 1860Q1254 1772 1206 1715T1066 1658Z" />
<glyph unicode="&#xd7;" horiz-adv-x="1364" d="M332 242L162 444L538 772L232 1100L436 1282L720 928L1090 1282L1260 1080L876 750L1190 422L986 242L694 594L332 242Z" />
<glyph unicode="&#xd8;" horiz-adv-x="1360" d="M224 -128L138 -82L254 102Q160 180 112 301T64 566Q64 824 154 1040Q244 1256 411 1384T802 1512Q961 1512 1076 1444L1182 1630L1270 1584L1156 1384Q1242 1305 1287 1186T1332 926Q1332 669 1244 454Q1156 240
991 113T604 -14Q528 -14 461 1T334 48L224 -128ZM630 246Q732 246 814 346Q892 447 934 601T976 916Q976 1027 958 1096L500 290Q544 246 630 246ZM444 386L906 1202Q859 1252 764 1252Q662 1252 584 1150Q505 1048 463 894T420 584Q420 461 444 386Z" />
<glyph unicode="&#xd9;" horiz-adv-x="1406" d="M606 -16Q359 -16 237 99T112 422Q112 457 115 497T126 584L254 1494H600L476 626Q472 587 466 543T460 444Q460 336 506 293T660 250Q745 250 801 300T889 434T938 620L1062 1494H1406L1278 584Q1263 475 1236
388T1170 236Q1091 104 954 44T606 -16ZM944 1634Q905 1648 843 1691T715 1789T599 1894T534 1974L740 2168L1066 1730L944 1634Z" />
<glyph unicode="&#xda;" horiz-adv-x="1406" d="M606 -16Q359 -16 237 99T112 422Q112 457 115 497T126 584L254 1494H600L476 626Q472 587 466 543T460 444Q460 336 506 293T660 250Q745 250 801 300T889 434T938 620L1062 1494H1406L1278 584Q1263 475 1236
388T1170 236Q1091 104 954 44T606 -16ZM816 1634L694 1730L1020 2168L1224 2002Q1213 1979 1178 1938T1093 1849T991 1756T892 1677T816 1634Z" />
<glyph unicode="&#xdb;" horiz-adv-x="1406" d="M606 -16Q359 -16 237 99T112 422Q112 457 115 497T126 584L254 1494H600L476 626Q472 587 466 543T460 444Q460 336 506 293T660 250Q745 250 801 300T889 434T938 620L1062 1494H1406L1278 584Q1263 475 1236
388T1170 236Q1091 104 954 44T606 -16ZM598 1618L464 1684L826 2048H1002L1210 1684L1058 1618L882 1788L598 1618Z" />
<glyph unicode="&#xdc;" horiz-adv-x="1406" d="M606 -16Q359 -16 237 99T112 422Q112 457 115 497T126 584L254 1494H600L476 626Q472 587 466 543T460 444Q460 336 506 293T660 250Q745 250 801 300T889 434T938 620L1062 1494H1406L1278 584Q1263 475 1236
388T1170 236Q1091 104 954 44T606 -16ZM622 1658Q564 1658 520 1709T476 1818Q476 1901 525 1957T654 2014Q720 2014 764 1967T808 1860Q808 1770 762 1714T622 1658ZM1082 1658Q1025 1658 982 1708T938 1818Q938 1899 986 1956T1114 2014Q1180 2014 1225 1967T1270
1860Q1270 1772 1222 1715T1082 1658Z" />
<glyph unicode="&#xdd;" horiz-adv-x="1136" d="M310 0L392 576L82 1494H444L582 982L606 850L664 982L940 1494H1324L738 576L656 0H310ZM680 1634L558 1730L884 2168L1088 2002Q1077 1979 1042 1938T957 1849T855 1756T756 1677T680 1634Z" />
<glyph unicode="&#xde;" horiz-adv-x="1276" d="M74 0L284 1494H636L602 1252Q625 1254 647 1255T690 1257T732 1258Q986 1258 1121 1151T1256 840Q1256 677 1182 544Q1107 411 962 332T616 252Q585 252 536 258T464 264L426 0H74ZM622 510Q771 510 841 594T918
834Q918 924 860 971T668 1018Q630 1018 624 1018T626 1018T641 1017T634 1016T570 1016L500 522Q518 516 552 513T622 510Z" />
<glyph unicode="&#xdf;" horiz-adv-x="1300" d="M792 -16Q701 -16 635 -4T526 30L550 288Q573 263 626 242T728 220Q799 220 840 248T882 336Q882 381 863 414T821 472T782 514Q725 579 698 643T670 762Q670 828 708 881T796 986Q862 1042 895 1096T928 1218Q928
1266 892 1299T796 1332Q729 1332 680 1290T597 1178T544 1021T512 846L396 0H58L178 906Q209 1123 288 1265T504 1478T846 1548Q962 1548 1053 1515T1196 1416T1248 1252Q1248 1137 1206 1069T1100 944Q1057 904 1037 876T1016 810Q1016 776 1035 737T1100 632Q1159
554 1190 489T1222 332Q1222 216 1167 139T1014 23T792 -16Z" />
<glyph unicode="&#xe0;" horiz-adv-x="1224" d="M396 -16Q224 -16 146 100T68 402Q68 556 117 688T257 919T474 1073T754 1128Q813 1128 879 1115T998 1084L1176 1128L1020 0H708L718 242Q670 134 588 59T396 -16ZM518 218Q555 218 592 258T662 359T720 483T758
592L804 918Q777 924 730 924Q634 924 568 852Q501 779 467 663T432 422Q432 354 441 309T470 241T518 218ZM840 1250Q801 1264 739 1307T611 1405T495 1510T430 1590L636 1784L962 1346L840 1250Z" />
<glyph unicode="&#xe1;" horiz-adv-x="1224" d="M396 -16Q224 -16 146 100T68 402Q68 556 117 688T257 919T474 1073T754 1128Q813 1128 879 1115T998 1084L1176 1128L1020 0H708L718 242Q670 134 588 59T396 -16ZM518 218Q555 218 592 258T662 359T720 483T758
592L804 918Q777 924 730 924Q634 924 568 852Q501 779 467 663T432 422Q432 354 441 309T470 241T518 218ZM732 1250L610 1346L936 1784L1140 1618Q1129 1595 1094 1554T1009 1465T907 1372T808 1293T732 1250Z" />
<glyph unicode="&#xe2;" horiz-adv-x="1224" d="M396 -16Q224 -16 146 100T68 402Q68 556 117 688T257 919T474 1073T754 1128Q813 1128 879 1115T998 1084L1176 1128L1020 0H708L718 242Q670 134 588 59T396 -16ZM518 218Q555 218 592 258T662 359T720 483T758
592L804 918Q777 924 730 924Q634 924 568 852Q501 779 467 663T432 422Q432 354 441 309T470 241T518 218ZM540 1254L406 1320L764 1664H940L1152 1320L1000 1254L824 1442L540 1254Z" />
<glyph unicode="&#xe3;" horiz-adv-x="1224" d="M396 -16Q224 -16 146 100T68 402Q68 556 117 688T257 919T474 1073T754 1128Q813 1128 879 1115T998 1084L1176 1128L1020 0H708L718 242Q670 134 588 59T396 -16ZM518 218Q555 218 592 258T662 359T720 483T758
592L804 918Q777 924 730 924Q634 924 568 852Q501 779 467 663T432 422Q432 354 441 309T470 241T518 218ZM948 1230Q884 1230 838 1254T756 1316Q728 1348 706 1364T646 1380Q607 1380 579 1365T512 1294L418 1426Q462 1512 525 1557T658 1602Q718 1602 762 1583T840
1522Q867 1491 887 1474T936 1456Q965 1456 990 1469T1037 1508T1076 1576L1182 1434Q1164 1386 1128 1339T1044 1261T948 1230Z" />
<glyph unicode="&#xe4;" horiz-adv-x="1224" d="M396 -16Q224 -16 146 100T68 402Q68 556 117 688T257 919T474 1073T754 1128Q813 1128 879 1115T998 1084L1176 1128L1020 0H708L718 242Q670 134 588 59T396 -16ZM518 218Q555 218 592 258T662 359T720 483T758
592L804 918Q777 924 730 924Q634 924 568 852Q501 779 467 663T432 422Q432 354 441 309T470 241T518 218ZM548 1312Q496 1312 456 1358T416 1456Q416 1531 461 1581T576 1632Q636 1632 676 1590T716 1494Q716 1413 674 1363T548 1312ZM1008 1312Q957 1312 918
1357T878 1456Q878 1530 922 1581T1038 1632Q1097 1632 1137 1590T1178 1494Q1178 1415 1135 1364T1008 1312Z" />
<glyph unicode="&#xe5;" horiz-adv-x="1224" d="M396 -16Q224 -16 146 100T68 402Q68 556 117 688T257 919T474 1073T754 1128Q813 1128 879 1115T998 1084L1176 1128L1020 0H708L718 242Q670 134 588 59T396 -16ZM518 218Q555 218 592 258T662 359T720 483T758
592L804 918Q777 924 730 924Q634 924 568 852Q501 779 467 663T432 422Q432 354 441 309T470 241T518 218ZM770 1224Q628 1224 546 1286T464 1462Q464 1567 524 1636Q584 1704 671 1733T846 1762Q983 1762 1063 1703T1144 1530Q1144 1431 1090 1362Q1036 1292
951 1258T770 1224ZM792 1364Q860 1364 907 1395T954 1502Q954 1555 914 1590T822 1626Q755 1626 706 1591T656 1484Q656 1435 698 1400T792 1364Z" />
<glyph unicode="&#xe6;" horiz-adv-x="1708" d="M378 -16Q206 -16 133 99T60 402Q60 561 117 694T275 924T505 1074T782 1128Q856 1128 924 1111T1040 1064Q1171 1128 1322 1128Q1434 1128 1507 1098T1617 1011T1654 872Q1654 765 1609 686T1484 548T1295 448T1062
374Q1062 322 1075 288T1118 237T1202 220Q1258 220 1321 245T1437 307T1518 380L1608 212Q1571 161 1516 119T1394 47T1256 1T1116 -16Q948 -16 848 68T712 288Q657 161 576 73T378 -16ZM500 240Q529 240 560 272T621 356T671 462T702 564Q710 616 723 663T754
754T797 837T850 912Q805 924 758 924Q670 924 604 878T494 754T428 585T406 402Q406 359 416 322T446 263T500 240ZM1056 548Q1103 551 1150 576T1236 642T1300 733T1324 838Q1324 891 1308 914T1250 938Q1219 938 1186 911T1132 844Q1095 777 1077 691T1056 548Z"
/>
<glyph unicode="&#xe7;" horiz-adv-x="934" d="M476 -16Q354 -16 263 43T122 203T72 432Q72 635 150 794Q228 953 366 1040T678 1128Q717 1128 765 1123T858 1108T930 1086L846 752Q827 772 794 797T723 840T652 858Q621 858 588 837T528 780Q485 726 457 647T428
486Q428 368 456 302T570 236Q629 236 696 272T800 348L886 180Q853 128 796 84T658 12T476 -16ZM370 -460Q276 -460 208 -443T122 -416L158 -218Q172 -224 211 -234T308 -244Q367 -244 413 -205T460 -98Q460 -42 452 -17T438 30L480 34L580 30Q600 2 621 -51T642
-188Q642 -324 568 -392T370 -460Z" />
<glyph unicode="&#xe8;" horiz-adv-x="1086" d="M494 -16Q348 -16 256 46Q160 108 116 209T72 432Q72 631 156 790Q239 951 382 1039T700 1128Q812 1128 885 1095T995 1005T1032 872Q1032 772 987 694T860 555T671 451T438 374Q438 367 438 360T438 346Q444 282
476 251T580 220Q635 220 698 245T815 307T896 380L986 212Q949 162 894 120T772 48T634 1T494 -16ZM434 548Q481 551 527 576T611 642T673 733T696 838Q696 891 680 914T622 938Q586 938 559 904T500 820Q458 753 447 676T434 548ZM784 1250Q745 1264 683 1307T555
1405T439 1510T374 1590L580 1784L906 1346L784 1250Z" />
<glyph unicode="&#xe9;" horiz-adv-x="1086" d="M494 -16Q348 -16 256 46Q160 108 116 209T72 432Q72 631 156 790Q239 951 382 1039T700 1128Q812 1128 885 1095T995 1005T1032 872Q1032 772 987 694T860 555T671 451T438 374Q438 367 438 360T438 346Q444 282
476 251T580 220Q635 220 698 245T815 307T896 380L986 212Q949 162 894 120T772 48T634 1T494 -16ZM434 548Q481 551 527 576T611 642T673 733T696 838Q696 891 680 914T622 938Q586 938 559 904T500 820Q458 753 447 676T434 548ZM676 1250L554 1346L880 1784L1084
1618Q1073 1595 1038 1554T953 1465T851 1372T752 1293T676 1250Z" />
<glyph unicode="&#xea;" horiz-adv-x="1086" d="M494 -16Q348 -16 256 46Q160 108 116 209T72 432Q72 631 156 790Q239 951 382 1039T700 1128Q812 1128 885 1095T995 1005T1032 872Q1032 772 987 694T860 555T671 451T438 374Q438 367 438 360T438 346Q444 282
476 251T580 220Q635 220 698 245T815 307T896 380L986 212Q949 162 894 120T772 48T634 1T494 -16ZM434 548Q481 551 527 576T611 642T673 733T696 838Q696 891 680 914T622 938Q586 938 559 904T500 820Q458 753 447 676T434 548ZM484 1254L350 1320L708 1664H884L1096
1320L944 1254L768 1442L484 1254Z" />
<glyph unicode="&#xeb;" horiz-adv-x="1086" d="M494 -16Q348 -16 256 46Q160 108 116 209T72 432Q72 631 156 790Q239 951 382 1039T700 1128Q812 1128 885 1095T995 1005T1032 872Q1032 772 987 694T860 555T671 451T438 374Q438 367 438 360T438 346Q444 282
476 251T580 220Q635 220 698 245T815 307T896 380L986 212Q949 162 894 120T772 48T634 1T494 -16ZM434 548Q481 551 527 576T611 642T673 733T696 838Q696 891 680 914T622 938Q586 938 559 904T500 820Q458 753 447 676T434 548ZM492 1312Q440 1312 400 1358T360
1456Q360 1531 405 1581T520 1632Q580 1632 620 1590T660 1494Q660 1413 618 1363T492 1312ZM952 1312Q901 1312 862 1357T822 1456Q822 1530 866 1581T982 1632Q1041 1632 1081 1590T1122 1494Q1122 1415 1079 1364T952 1312Z" />
<glyph unicode="&#xec;" horiz-adv-x="648" d="M78 0L230 1114H582L426 0H78ZM484 1250Q445 1264 383 1307T255 1405T139 1510T74 1590L280 1784L606 1346L484 1250Z" />
<glyph unicode="&#xed;" horiz-adv-x="648" d="M78 0L230 1114H582L426 0H78ZM376 1250L254 1346L580 1784L784 1618Q773 1595 738 1554T653 1465T551 1372T452 1293T376 1250Z" />
<glyph unicode="&#xee;" horiz-adv-x="648" d="M78 0L230 1114H582L426 0H78ZM184 1254L50 1320L408 1664H584L796 1320L644 1254L468 1442L184 1254Z" />
<glyph unicode="&#xef;" horiz-adv-x="648" d="M78 0L230 1114H582L426 0H78ZM192 1312Q140 1312 100 1358T60 1456Q60 1531 105 1581T220 1632Q280 1632 320 1590T360 1494Q360 1413 318 1363T192 1312ZM652 1312Q601 1312 562 1357T522 1456Q522 1530 566 1581T682
1632Q741 1632 781 1590T822 1494Q822 1415 779 1364T652 1312Z" />
<glyph unicode="&#xf0;" horiz-adv-x="1194" d="M514 -16Q394 -16 294 40T133 198T72 438Q72 565 106 688T209 911T380 1070T616 1130Q679 1130 724 1119T794 1084Q788 1186 753 1259T658 1410L742 1432L578 1252L454 1362L640 1548L642 1428Q579 1491 516 1532T370
1596L428 1772Q491 1757 551 1732T670 1671T784 1590L668 1560L860 1778L976 1666L790 1458L808 1572Q919 1480 990 1354T1096 1081T1130 784Q1130 557 1060 374Q990 193 851 89T514 -16ZM544 178Q591 178 628 222T692 340T737 506T763 694T772 876Q761 899 744
916T700 942T636 952Q599 952 567 918T510 830Q484 772 466 700T439 553T430 418Q430 369 438 326T462 250T498 197T544 178Z" />
<glyph unicode="&#xf1;" horiz-adv-x="1288" d="M74 0L226 1114H560L546 912Q614 1014 706 1071T908 1128Q1040 1128 1109 1060T1178 834Q1178 812 1172 755T1156 628T1138 500Q1135 480 1128 426T1111 303T1092 166T1076 53T1068 0H720Q735 100 747 188T770 354T788
498Q800 599 807 666T816 770Q818 823 798 844T736 866Q709 866 680 853T621 816T566 757T518 682L422 0H74ZM912 1230Q848 1230 802 1254T720 1316Q692 1348 670 1364T610 1380Q571 1380 543 1365T476 1294L382 1426Q426 1512 489 1557T622 1602Q682 1602 726
1583T804 1522Q831 1491 851 1474T900 1456Q929 1456 954 1469T1001 1508T1040 1576L1146 1434Q1128 1386 1092 1339T1008 1261T912 1230Z" />
<glyph unicode="&#xf2;" horiz-adv-x="1154" d="M470 -16Q332 -16 242 45T108 214T64 458Q64 641 136 794Q207 947 346 1037T684 1128Q822 1128 912 1068T1046 901T1090 656Q1090 475 1020 320Q948 167 808 76T470 -16ZM516 194Q579 194 622 240T691 360T728 520T740
688Q740 748 732 801T701 887T632 920Q571 920 529 871T460 744T422 580T410 418Q410 306 437 250T516 194ZM740 1250Q701 1264 639 1307T511 1405T395 1510T330 1590L536 1784L862 1346L740 1250Z" />
<glyph unicode="&#xf3;" horiz-adv-x="1154" d="M470 -16Q332 -16 242 45T108 214T64 458Q64 641 136 794Q207 947 346 1037T684 1128Q822 1128 912 1068T1046 901T1090 656Q1090 475 1020 320Q948 167 808 76T470 -16ZM516 194Q579 194 622 240T691 360T728 520T740
688Q740 748 732 801T701 887T632 920Q571 920 529 871T460 744T422 580T410 418Q410 306 437 250T516 194ZM632 1250L510 1346L836 1784L1040 1618Q1029 1595 994 1554T909 1465T807 1372T708 1293T632 1250Z" />
<glyph unicode="&#xf4;" horiz-adv-x="1154" d="M470 -16Q332 -16 242 45T108 214T64 458Q64 641 136 794Q207 947 346 1037T684 1128Q822 1128 912 1068T1046 901T1090 656Q1090 475 1020 320Q948 167 808 76T470 -16ZM516 194Q579 194 622 240T691 360T728 520T740
688Q740 748 732 801T701 887T632 920Q571 920 529 871T460 744T422 580T410 418Q410 306 437 250T516 194ZM440 1254L306 1320L664 1664H840L1052 1320L900 1254L724 1442L440 1254Z" />
<glyph unicode="&#xf5;" horiz-adv-x="1154" d="M470 -16Q332 -16 242 45T108 214T64 458Q64 641 136 794Q207 947 346 1037T684 1128Q822 1128 912 1068T1046 901T1090 656Q1090 475 1020 320Q948 167 808 76T470 -16ZM516 194Q579 194 622 240T691 360T728 520T740
688Q740 748 732 801T701 887T632 920Q571 920 529 871T460 744T422 580T410 418Q410 306 437 250T516 194ZM848 1230Q784 1230 738 1254T656 1316Q628 1348 606 1364T546 1380Q507 1380 479 1365T412 1294L318 1426Q362 1512 425 1557T558 1602Q618 1602 662 1583T740
1522Q767 1491 787 1474T836 1456Q865 1456 890 1469T937 1508T976 1576L1082 1434Q1064 1386 1028 1339T944 1261T848 1230Z" />
<glyph unicode="&#xf6;" horiz-adv-x="1154" d="M470 -16Q332 -16 242 45T108 214T64 458Q64 641 136 794Q207 947 346 1037T684 1128Q822 1128 912 1068T1046 901T1090 656Q1090 475 1020 320Q948 167 808 76T470 -16ZM516 194Q579 194 622 240T691 360T728 520T740
688Q740 748 732 801T701 887T632 920Q571 920 529 871T460 744T422 580T410 418Q410 306 437 250T516 194ZM448 1312Q396 1312 356 1358T316 1456Q316 1531 361 1581T476 1632Q536 1632 576 1590T616 1494Q616 1413 574 1363T448 1312ZM908 1312Q857 1312 818
1357T778 1456Q778 1530 822 1581T938 1632Q997 1632 1037 1590T1078 1494Q1078 1415 1035 1364T908 1312Z" />
<glyph unicode="&#xf7;" horiz-adv-x="1364" d="M218 638L254 896L1192 894L1158 638H218ZM626 140Q556 140 515 181T474 288Q474 374 530 436T676 498Q759 498 796 458T834 352Q834 258 778 199T626 140ZM726 1032Q656 1032 615 1073T574 1180Q574 1266 630 1328T776
1390Q859 1390 896 1350T934 1244Q934 1150 878 1091T726 1032Z" />
<glyph unicode="&#xf8;" horiz-adv-x="1154" d="M232 -136L144 -98L290 152L350 200L758 992L796 1034L926 1258L1010 1220L880 998L820 946L394 132L358 86L232 -136ZM470 -16Q332 -16 242 45T108 214T64 458Q64 641 136 794Q207 947 346 1037T684 1128Q822 1128
912 1068T1046 901T1090 656Q1090 475 1020 320Q948 167 808 76T470 -16ZM516 194Q579 194 622 240T691 360T728 520T740 688Q740 748 732 801T701 887T632 920Q571 920 529 871T460 744T422 580T410 418Q410 306 437 250T516 194Z" />
<glyph unicode="&#xf9;" horiz-adv-x="1252" d="M382 -20Q262 -20 185 41T108 236Q108 290 117 376T144 580Q156 669 168 758T192 936T216 1114H562Q555 1060 548 1006T534 899T520 792T506 684T492 576Q479 477 473 414T466 324Q466 278 486 253T534 228Q567
228 603 252T674 316T738 408L836 1114H1184L1032 0H722L728 190Q673 102 582 41T382 -20ZM802 1250Q763 1264 701 1307T573 1405T457 1510T392 1590L598 1784L924 1346L802 1250Z" />
<glyph unicode="&#xfa;" horiz-adv-x="1252" d="M382 -20Q262 -20 185 41T108 236Q108 290 117 376T144 580Q156 669 168 758T192 936T216 1114H562Q555 1060 548 1006T534 899T520 792T506 684T492 576Q479 477 473 414T466 324Q466 278 486 253T534 228Q567
228 603 252T674 316T738 408L836 1114H1184L1032 0H722L728 190Q673 102 582 41T382 -20ZM694 1250L572 1346L898 1784L1102 1618Q1091 1595 1056 1554T971 1465T869 1372T770 1293T694 1250Z" />
<glyph unicode="&#xfb;" horiz-adv-x="1252" d="M382 -20Q262 -20 185 41T108 236Q108 290 117 376T144 580Q156 669 168 758T192 936T216 1114H562Q555 1060 548 1006T534 899T520 792T506 684T492 576Q479 477 473 414T466 324Q466 278 486 253T534 228Q567
228 603 252T674 316T738 408L836 1114H1184L1032 0H722L728 190Q673 102 582 41T382 -20ZM502 1254L368 1320L726 1664H902L1114 1320L962 1254L786 1442L502 1254Z" />
<glyph unicode="&#xfc;" horiz-adv-x="1252" d="M382 -20Q262 -20 185 41T108 236Q108 290 117 376T144 580Q156 669 168 758T192 936T216 1114H562Q555 1060 548 1006T534 899T520 792T506 684T492 576Q479 477 473 414T466 324Q466 278 486 253T534 228Q567
228 603 252T674 316T738 408L836 1114H1184L1032 0H722L728 190Q673 102 582 41T382 -20ZM510 1312Q458 1312 418 1358T378 1456Q378 1531 423 1581T538 1632Q598 1632 638 1590T678 1494Q678 1413 636 1363T510 1312ZM970 1312Q919 1312 880 1357T840 1456Q840
1530 884 1581T1000 1632Q1059 1632 1099 1590T1140 1494Q1140 1415 1097 1364T970 1312Z" />
<glyph unicode="&#xfd;" horiz-adv-x="1114" d="M164 -504Q92 -504 28 -483T-90 -432L-2 -194Q33 -218 81 -235T166 -252Q211 -252 264 -220T368 -135T460 -20H258L204 346L92 1114H436L508 444L542 134Q574 202 602 275T656 428Q690 524 708 603T736 766T752
956Q755 989 755 1025T756 1114H1068Q1071 1099 1072 1062T1074 964Q1074 816 1038 657T928 324Q877 205 805 78T652 -166T492 -372Q438 -430 358 -467T164 -504ZM586 1250L464 1346L790 1784L994 1618Q983 1595 948 1554T863 1465T761 1372T662 1293T586 1250Z"
/>
<glyph unicode="&#xfe;" horiz-adv-x="1260" d="M8 -480L74 0L294 1596H628L546 954L526 834Q557 914 605 981T718 1088T864 1128Q1037 1128 1114 1011T1192 708Q1192 521 1114 356Q1061 246 974 162T769 31T504 -16Q482 -16 457 -13T402 -6L392 -138L354 -480H8ZM528
190Q623 190 692 262Q758 334 792 449T826 686Q826 788 805 839T740 890Q706 890 668 851T586 734T494 542L450 196Q477 190 528 190Z" />
<glyph unicode="&#xff;" horiz-adv-x="1114" d="M164 -504Q92 -504 28 -483T-90 -432L-2 -194Q33 -218 81 -235T166 -252Q211 -252 264 -220T368 -135T460 -20H258L204 346L92 1114H436L508 444L542 134Q574 202 602 275T656 428Q690 524 708 603T736 766T752
956Q755 989 755 1025T756 1114H1068Q1071 1099 1072 1062T1074 964Q1074 816 1038 657T928 324Q877 205 805 78T652 -166T492 -372Q438 -430 358 -467T164 -504ZM402 1312Q350 1312 310 1358T270 1456Q270 1531 315 1581T430 1632Q490 1632 530 1590T570 1494Q570
1413 528 1363T402 1312ZM862 1312Q811 1312 772 1357T732 1456Q732 1530 776 1581T892 1632Q951 1632 991 1590T1032 1494Q1032 1415 989 1364T862 1312Z" />
<glyph unicode="&#x2013;" horiz-adv-x="1478" d="M204 592L240 836H1314L1278 592H204Z" />
<glyph unicode="&#x2014;" horiz-adv-x="1940" d="M204 592L240 836H1776L1738 592H204Z" />
<glyph unicode="&#x2018;" horiz-adv-x="704" d="M390 866Q350 888 310 935T242 1057T214 1234Q214 1342 259 1440T383 1615T558 1730L672 1592L670 1570Q629 1550 596 1505T542 1398T522 1270Q522 1212 541 1147T584 1058L578 1018L390 866Z" />
<glyph unicode="&#x2019;" horiz-adv-x="692" d="M278 866L166 1002L168 1024Q209 1045 242 1090T294 1195T314 1324Q314 1413 292 1462T246 1536L250 1576L446 1728Q486 1706 527 1659T596 1542T624 1384Q624 1271 578 1167T454 984T278 866Z" />
<glyph unicode="&#x201a;" horiz-adv-x="692" d="M126 -540L14 -402L16 -380Q58 -359 91 -314T143 -209T162 -82Q162 -43 146 0T109 79T72 130L76 170L294 324Q333 301 374 244T444 116T472 -22Q472 -135 426 -239T302 -422T126 -540Z" />
<glyph unicode="&#x201c;" horiz-adv-x="1218" d="M904 866Q864 888 824 935T756 1057T728 1234Q728 1342 773 1440T897 1615T1072 1730L1186 1592L1184 1570Q1143 1550 1110 1505T1056 1398T1036 1270Q1036 1212 1055 1147T1098 1058L1092 1018L904 866ZM390
866Q350 888 310 935T242 1057T214 1234Q214 1342 259 1440T383 1615T558 1730L672 1592L670 1570Q629 1550 596 1505T542 1398T522 1270Q522 1212 541 1147T584 1058L578 1018L390 866Z" />
<glyph unicode="&#x201d;" horiz-adv-x="1196" d="M278 866L166 1002L168 1024Q209 1045 242 1090T294 1195T314 1324Q314 1413 292 1462T246 1536L250 1576L446 1728Q486 1706 527 1659T596 1542T624 1384Q624 1271 578 1167T454 984T278 866ZM782 866L670 1002L672
1024Q713 1045 746 1090T798 1195T818 1324Q818 1413 796 1462T750 1536L754 1576L950 1728Q990 1706 1031 1659T1100 1542T1128 1384Q1128 1271 1082 1167T958 984T782 866Z" />
<glyph unicode="&#x201e;" horiz-adv-x="1202" d="M126 -540L14 -402L16 -380Q58 -359 91 -314T143 -209T162 -82Q162 -43 146 0T109 79T72 130L76 170L294 324Q333 301 374 244T444 116T472 -22Q472 -135 426 -239T302 -422T126 -540ZM636 -540L524 -402L526
-380Q568 -359 601 -314T653 -209T672 -82Q672 -43 656 0T619 79T582 130L586 170L804 324Q843 301 884 244T954 116T982 -22Q982 -135 936 -239T812 -422T636 -540Z" />
<glyph unicode="&#x2022;" horiz-adv-x="838" d="M400 496Q327 496 278 546T228 666Q228 729 261 786T349 880T472 916Q547 916 595 869T644 750Q644 686 612 628T525 533T400 496Z" />
<glyph unicode="&#x2039;" horiz-adv-x="1176" d="M794 128L154 518L186 704L910 1090L966 890L546 590L902 296L794 128Z" />
<glyph unicode="&#x203a;" horiz-adv-x="1176" d="M278 120L222 320L642 618L286 912L394 1080L1034 692L1004 506L278 120Z" />
</font>
</defs>
</svg>
